<?xml version="1.0" encoding="UTF-8"?>
<svg xmlns="http://www.w3.org/2000/svg" viewBox="0 0 1200 600" preserveAspectRatio="xMidYMid slice" role="img" aria-label="Cybersecurity FPT cover">
  <defs>
    <linearGradient id="bg" x1="0" y1="0" x2="1" y2="1">
      <stop offset="0" stop-color="#0a0e1f"/>
      <stop offset="0.5" stop-color="#13235e"/>
      <stop offset="1" stop-color="#1a3a96"/>
    </linearGradient>
    <pattern id="bin" width="200" height="20" patternUnits="userSpaceOnUse">
      <text x="0" y="14" font-family="JetBrains Mono, Consolas, monospace" font-size="14" fill="#22c55e" opacity="0.18">01001100 11010101 00110011 10101010 11000110</text>
    </pattern>
  </defs>
  <rect width="1200" height="600" fill="url(#bg)"/>
  <rect width="1200" height="600" fill="url(#bin)"/>
  <g transform="translate(64,68)">
    <rect x="0" y="0" width="58" height="22" rx="4" fill="#f37021"/>
    <text x="29" y="17" text-anchor="middle" font-family="Inter, sans-serif" font-weight="900" font-size="16" fill="#ffffff">FPT</text>
    <text x="68" y="17" font-family="Inter, sans-serif" font-weight="700" font-size="13" fill="#ffffff" letter-spacing="0.18em">UNIVERSITY</text>
    <text x="0" y="42" font-family="Inter, sans-serif" font-weight="500" font-size="12" fill="#86efac" letter-spacing="0.12em">CYBER · CTF · PENTEST</text>
  </g>
  <g transform="translate(64,260)">
    <rect x="0" y="0" width="220" height="36" rx="18" fill="#22c55e"/>
    <text x="110" y="24" text-anchor="middle" font-family="Inter, sans-serif" font-weight="800" font-size="13" fill="#0a0e1f" letter-spacing="0.08em">AN TOÀN THÔNG TIN</text>
  </g>
  <text x="64" y="370" font-family="Inter, sans-serif" font-weight="800" font-size="56" fill="#ffffff">Phòng thç chç Ùng.</text>
  <text x="64" y="430" font-family="Inter, sans-serif" font-weight="800" font-size="56" fill="#86efac">T¥n công có ¡o éc.</text>
  <text x="64" y="488" font-family="Inter, sans-serif" font-weight="500" font-size="20" fill="#cbd5e1">Capture The Flag · Red/Blue team · workshop b£o m­t éng dång</text>
  <g transform="translate(920,210)" stroke="#86efac" fill="none" stroke-width="3">
    <path d="M70 0 L140 36 V100 C140 160 70 200 70 200 C70 200 0 160 0 100 V36 Z"/>
    <path d="M40 100 L65 125 L110 75" stroke-width="6" stroke-linecap="round" stroke-linejoin="round"/>
  </g>
</svg>
